<svg id="artwork" xmlns="http://www.w3.org/2000/svg" width="1024" height="140" viewBox="0 0 1024 140">
  <defs>
    <style>
      .cls-1 {
        fill: #ff004a;
      }

      .cls-2 {
        fill: #4695eb;
      }

      .cls-3 {
        fill: #fff;
      }
    </style>
  </defs>
  <g>
    <path class="cls-1" d="M33.23,17.54V41.13a5.9,5.9,0,0,0,8.85,5.11L62.52,34.45a5.9,5.9,0,0,0,0-10.22L42.08,12.43A5.9,5.9,0,0,0,33.23,17.54Z"/>
    <path class="cls-2" d="M109.5,17.54V41.13a5.9,5.9,0,0,1-8.85,5.11L80.22,34.45a5.9,5.9,0,0,1,0-10.22l20.43-11.8A5.9,5.9,0,0,1,109.5,17.54Z"/>
    <path class="cls-1" d="M42.08,134.31l20.44-11.8a5.9,5.9,0,0,0,0-10.22L42.08,100.5a5.9,5.9,0,0,0-8.85,5.11V129.2A5.9,5.9,0,0,0,42.08,134.31Z"/>
    <path class="cls-2" d="M4,68.26l20.43-11.8a5.9,5.9,0,0,1,8.85,5.11v23.6a5.9,5.9,0,0,1-8.85,5.11L4,78.48A5.9,5.9,0,0,1,4,68.26Z"/>
    <path class="cls-1" d="M138.79,68.26l-20.44-11.8a5.9,5.9,0,0,0-8.85,5.11v23.6a5.9,5.9,0,0,0,8.85,5.11l20.44-11.8A5.9,5.9,0,0,0,138.79,68.26Z"/>
    <path class="cls-2" d="M100.65,134.31l-20.43-11.8a5.9,5.9,0,0,1,0-10.22l20.43-11.79a5.89,5.89,0,0,1,8.85,5.11V129.2A5.9,5.9,0,0,1,100.65,134.31Z"/>
  </g>
  <g>
    <g>
      <path class="cls-3" d="M45.35,61.29l-.05,0A3.14,3.14,0,0,0,40.62,64V82.09a16.64,16.64,0,0,0,8.32,14.42l15.65,9,0,0a3.15,3.15,0,0,0,4.69-2.71V84.74A16.66,16.66,0,0,0,61,70.32Z"/>
      <path class="cls-3" d="M73.41,102.81v0a3.15,3.15,0,0,0,4.69,2.71l.05,0,15.65-9a16.64,16.64,0,0,0,8.32-14.42V64a3.15,3.15,0,0,0-4.69-2.71l0,0-15.65,9a16.64,16.64,0,0,0-8.33,14.42Z"/>
    </g>
    <path class="cls-3" d="M95.64,57.49l0,0a3.16,3.16,0,0,0,0-5.43l0,0L80,43a16.62,16.62,0,0,0-16.65,0L47.69,52l0,0a3.16,3.16,0,0,0,0,5.43l0,0,15.65,9a16.67,16.67,0,0,0,16.65,0Z"/>
  </g>
  <g>
    <path class="cls-3" d="M276.45,63.81q0,15.85-5.62,26.58a34.33,34.33,0,0,1-16.5,15.71L276,130.25h-24.4l-16.47-20.16h-1.41q-20.66,0-31.72-12T190.9,63.69q0-22.44,11.09-34.26T233.8,17.59q20.72,0,31.68,11.93T276.45,63.81Zm-65.58,0q0,15.06,5.72,22.68t17.09,7.62q22.8,0,22.8-30.3T233.8,33.45q-11.37,0-17.15,7.65T210.87,63.81Z"/>
    <path class="cls-3" d="M365.69,19V77.15a33.48,33.48,0,0,1-4.45,17.45,29.07,29.07,0,0,1-12.88,11.5q-8.42,4-19.91,4-17.34,0-26.92-8.88T291.94,76.9V19h19V74q0,10.39,4.18,15.25t13.83,4.85q9.35,0,13.55-4.88t4.21-15.34V19Z"/>
    <path class="cls-3" d="M440.19,108.86l-6.52-21.39H400.91l-6.51,21.39H373.87l31.71-90.22h23.3l31.83,90.22ZM429.12,71.49q-9-29.07-10.17-32.88c-.76-2.54-1.3-4.54-1.63-6q-2,7.88-11.61,38.9Z"/>
    <path class="cls-3" d="M488.56,74.38v34.48H469.5V19h26.19q18.31,0,27.1,6.67t8.79,20.25A23.9,23.9,0,0,1,527.22,60a28.82,28.82,0,0,1-12.36,9.68q20.28,30.3,26.43,39.15H520.15L498.7,74.38Zm0-15.48h6.14q9,0,13.34-3t4.3-9.46q0-6.39-4.39-9.1t-13.62-2.7h-5.77Z"/>
    <path class="cls-3" d="M622.36,108.86H600.72L577.18,71l-8,5.78v32.08h-19V19h19V60.12l7.5-10.57L601,19h21.14L590.77,58.77Z"/>
    <path class="cls-3" d="M631.15,108.86V19H650.2v89.85Z"/>
    <path class="cls-3" d="M721.56,19H740.8l-30.55,89.85H689.48L659,19h19.24l16.9,53.47q1.41,4.72,2.92,11c1,4.2,1.63,7.12,1.87,8.76q.69-5.65,4.61-19.79Z"/>
    <path class="cls-3" d="M801.34,108.86H749.59V19h51.75V34.62h-32.7V54.35h30.42V70H768.64V93.13h32.7Z"/>
    <path class="cls-3" d="M836.62,74.38v34.48H817.56V19h26.19q18.32,0,27.1,6.67t8.79,20.25A23.9,23.9,0,0,1,875.28,60a28.82,28.82,0,0,1-12.36,9.68q20.28,30.3,26.43,39.15H868.21L846.76,74.38Zm0-15.48h6.14q9,0,13.34-3t4.3-9.46q0-6.39-4.39-9.1t-13.62-2.7h-5.77Z"/>
    <path class="cls-3" d="M951.18,83.91q0,12.16-8.76,19.17t-24.37,7q-14.37,0-25.44-5.41V87A104.49,104.49,0,0,0,908,92.7a45.91,45.91,0,0,0,11.53,1.66q6.27,0,9.62-2.4a8.2,8.2,0,0,0,3.35-7.13,7.82,7.82,0,0,0-1.48-4.7,16.55,16.55,0,0,0-4.33-4A112.53,112.53,0,0,0,915,70.08a54.87,54.87,0,0,1-12.35-7.44,27.82,27.82,0,0,1-6.58-8.29,23.68,23.68,0,0,1-2.46-11.07q0-11.91,8.09-18.74t22.34-6.82a52.53,52.53,0,0,1,13.36,1.66,90.93,90.93,0,0,1,13.31,4.67L944.6,38.86a89.25,89.25,0,0,0-11.89-4.12,38.2,38.2,0,0,0-9.25-1.17q-5.4,0-8.3,2.52a8.34,8.34,0,0,0-2.88,6.58,8.19,8.19,0,0,0,1.16,4.39,12.9,12.9,0,0,0,3.72,3.63A114.3,114.3,0,0,0,929.24,57q12.6,6,17.27,12.08A23.57,23.57,0,0,1,951.18,83.91Z"/>
    <path class="cls-3" d="M1016.7,108.86H965V19h51.75V34.62H984V54.35h30.43V70H984V93.13h32.7Z"/>
  </g>
</svg>
